<svg width="13" height="14" viewBox="0 0 13 14" fill="none" xmlns="http://www.w3.org/2000/svg">
<g clip-path="url(#clip0_3_545)">
<path d="M12.7832 12.2694L9.59716 9.07786C10.3822 8.05052 10.7663 6.77251 10.6778 5.48261C10.5893 4.19271 10.0342 2.97916 9.11616 2.06869C8.62196 1.5698 8.03347 1.1742 7.38494 0.904889C6.73641 0.635582 6.04079 0.497957 5.33857 0.500023C4.63664 0.498386 3.94139 0.636322 3.29325 0.905807C2.6451 1.17529 2.05701 1.57095 1.56316 2.06977C0.562443 3.07337 0.000488281 4.4328 0.000488281 5.85006C0.000488281 7.26733 0.562443 8.62676 1.56316 9.63036C2.05701 10.1292 2.6451 10.5248 3.29325 10.7943C3.94139 11.0638 4.63664 11.2017 5.33857 11.2001C6.47824 11.2001 7.61899 10.8426 8.56257 10.1114L11.7692 13.2855C11.8363 13.3541 11.9166 13.4085 12.0052 13.4454C12.0938 13.4822 12.1889 13.5008 12.2849 13.5C12.4785 13.4986 12.6639 13.4216 12.8017 13.2855C12.9318 13.1473 13.0029 12.9637 12.9997 12.7739C12.9964 12.5841 12.9181 12.403 12.7832 12.2694ZM5.35699 9.75602C4.30616 9.75602 3.34416 9.34436 2.59557 8.61419C1.08324 7.09752 1.08324 4.61886 2.59557 3.08594C2.95741 2.72237 3.38781 2.43423 3.86183 2.23823C4.33585 2.04222 4.84405 1.94225 5.35699 1.94411C6.40782 1.94411 7.36982 2.35469 8.11732 3.08594C8.86482 3.81719 9.25699 4.79761 9.25699 5.84952C9.25699 6.90144 8.84749 7.86452 8.11732 8.61419C7.75695 8.97935 7.32696 9.26847 6.85281 9.46442C6.37866 9.66037 5.87001 9.76024 5.35699 9.75602Z" fill="#777777"/>
</g>
<defs>
<clipPath id="clip0_3_545">
<rect width="13" height="13" fill="white" transform="translate(0 0.5)"/>
</clipPath>
</defs>
</svg>
