<svg width="37" height="38" viewBox="0 0 37 38" fill="none" xmlns="http://www.w3.org/2000/svg">
<g clip-path="url(#clip0_3_806)">
<path d="M18.5001 0.956909C8.60824 0.956909 0.566406 8.99875 0.566406 18.8906C0.566406 28.7824 8.60824 36.8243 18.5001 36.8243C28.3919 36.8243 36.4338 28.7824 36.4338 18.8906C36.4338 8.99875 28.3919 0.956909 18.5001 0.956909ZM22.9552 19.5324H20.048V29.9151H15.7062V19.5324H13.6674V15.8702H15.7062V13.4916C15.7062 11.7926 16.4991 9.11201 20.0858 9.11201H23.295V12.661H20.9542C20.5766 12.661 20.048 12.8498 20.048 13.6804V15.8324H23.3327L22.9552 19.5324Z" fill="#5D5D5F"/>
</g>
<defs>
<clipPath id="clip0_3_806">
<rect width="37" height="37" fill="white" transform="translate(0 0.390625)"/>
</clipPath>
</defs>
</svg>
