<svg width="37" height="38" viewBox="0 0 37 38" fill="none" xmlns="http://www.w3.org/2000/svg">
<g clip-path="url(#clip0_3_809)">
<path d="M18.5001 0.956909C8.60824 0.956909 0.566406 8.99875 0.566406 18.8906C0.566406 28.7824 8.60824 36.8243 18.5001 36.8243C28.3919 36.8243 36.4338 28.7824 36.4338 18.8906C36.4338 8.99875 28.3919 0.956909 18.5001 0.956909ZM26.5042 14.7753V15.3038C26.5042 20.7406 22.3511 27.0457 14.7623 27.0457C12.4215 27.0457 10.2695 26.3661 8.41947 25.1957C8.75926 25.2334 9.0613 25.2712 9.4011 25.2712C11.3266 25.2712 13.1011 24.6294 14.5358 23.4967C12.7235 23.459 11.2133 22.2885 10.6848 20.6273C10.9491 20.6651 11.2133 20.7028 11.4776 20.7028C11.8552 20.7028 12.2327 20.6651 12.5725 20.5518C10.6848 20.1743 9.25008 18.513 9.25008 16.512V16.4743C9.81641 16.7763 10.4582 16.9651 11.1001 17.0028C10.0052 16.2477 9.25008 15.0018 9.25008 13.5671C9.25008 12.812 9.43886 12.0947 9.81641 11.4906C11.8552 13.9824 14.8756 15.6436 18.3113 15.7947C18.1713 15.191 18.169 14.5636 18.3046 13.9589C18.4402 13.3543 18.7103 12.7879 19.0947 12.3019C19.4792 11.8159 19.9682 11.4227 20.5254 11.1515C21.0826 10.8804 21.6937 10.7382 22.3133 10.7355C23.4838 10.7355 24.5787 11.2263 25.3338 12.0569C26.2776 11.8681 27.146 11.5283 27.9389 11.0375C27.6368 12.0192 26.9572 12.812 26.1266 13.3028C26.9572 13.1896 27.7501 13.0008 28.5052 12.661C28.0144 13.4916 27.297 14.2089 26.5042 14.7753Z" fill="#5D5D5F"/>
</g>
<defs>
<clipPath id="clip0_3_809">
<rect width="37" height="37" fill="white" transform="translate(0 0.390625)"/>
</clipPath>
</defs>
</svg>
