<svg width="37" height="38" viewBox="0 0 37 38" fill="none" xmlns="http://www.w3.org/2000/svg">
<g clip-path="url(#clip0_3_812)">
<path d="M18.5001 22.1553C19.0995 22.1574 19.6878 21.9938 20.2 21.6824C20.7122 21.3711 21.1283 20.9242 21.4023 20.3911C21.6764 19.8581 21.7977 19.2596 21.7528 18.6619C21.7079 18.0642 21.4987 17.4905 21.1481 17.0043C20.8507 16.5778 20.4545 16.2294 19.9935 15.9889C19.5325 15.7483 19.0201 15.6227 18.5001 15.6227C17.9801 15.6227 17.4677 15.7483 17.0067 15.9889C16.5456 16.2294 16.1495 16.5778 15.8521 17.0043C15.5015 17.4905 15.2923 18.0642 15.2474 18.6619C15.2025 19.2596 15.3238 19.8581 15.5979 20.3911C15.8719 20.9242 16.288 21.3711 16.8002 21.6824C17.3124 21.9938 17.9007 22.1574 18.5001 22.1553ZM25.6462 14.9004V11.7445H22.4903V14.9004H25.6462Z" fill="#5D5D5F"/>
<path d="M18.5 2.56714C9.50397 2.56714 2.17651 9.89459 2.17651 18.8907C2.17651 27.8867 9.50397 35.2142 18.5 35.2142C27.4961 35.2142 34.8236 27.8867 34.8236 18.8907C34.8236 9.89459 27.4961 2.56714 18.5 2.56714ZM27.7863 17.0044V24.5858C27.7863 26.5446 26.1902 28.1769 24.1951 28.1769H12.8049C10.8461 28.1769 9.21377 26.5809 9.21377 24.5858V13.1956C9.21377 11.2367 10.8098 9.60439 12.8049 9.60439H24.1951C26.154 9.60439 27.7863 11.2005 27.7863 13.1956V17.0044Z" fill="#5D5D5F"/>
<path d="M23.6147 18.8907C23.6147 21.6838 21.3657 23.9691 18.5363 23.9691C17.7057 23.971 16.8873 23.7687 16.1532 23.3803C15.419 22.9918 14.7915 22.4289 14.3258 21.7411C13.8601 21.0533 13.5705 20.2617 13.4824 19.4358C13.3943 18.6098 13.5104 17.7749 13.8206 17.0044H11.0637V24.5858C11.0637 25.5652 11.8618 26.3632 12.8412 26.3632H24.2314C25.2108 26.3632 26.0088 25.5652 26.0088 24.5858V17.0044H23.2157C23.4696 17.5485 23.6147 18.2377 23.6147 18.8907Z" fill="#5D5D5F"/>
</g>
<defs>
<clipPath id="clip0_3_812">
<rect width="37" height="37" fill="white" transform="translate(0 0.390625)"/>
</clipPath>
</defs>
</svg>
