<svg width="37" height="38" viewBox="0 0 37 38" fill="none" xmlns="http://www.w3.org/2000/svg">
<g clip-path="url(#clip0_3_817)">
<path d="M16.1785 21.6838C18.101 20.7043 19.9873 19.7249 21.8736 18.7093C19.951 17.6936 18.0647 16.7142 16.1785 15.7347V21.6838Z" fill="#5D5D5F"/>
<path d="M18.4999 1.66028C8.996 1.66028 1.26953 9.38675 1.26953 18.8907C1.26953 28.3946 8.996 36.1211 18.4999 36.1211C28.0038 36.1211 35.7303 28.3946 35.7303 18.8907C35.7303 9.38675 28.0038 1.66028 18.4999 1.66028ZM27.1695 23.1348C26.9519 24.0779 26.1538 24.8034 25.2107 24.9122C22.998 25.1662 20.7127 25.1662 18.4999 25.1662C16.2509 25.1662 14.0019 25.1662 11.7891 24.9122C10.846 24.8034 10.0842 24.1142 9.83032 23.1348C9.50385 21.7564 9.50385 20.3054 9.50385 18.8907C9.50385 17.476 9.50385 15.9887 9.83032 14.6466C10.048 13.7034 10.846 12.9779 11.7891 12.8691C14.0019 12.6152 16.2872 12.6152 18.4999 12.6152C20.7489 12.6152 22.998 12.6152 25.2107 12.8691C26.1538 12.9779 26.9156 13.6671 27.1695 14.6466C27.496 16.025 27.496 17.476 27.496 18.8907C27.496 20.3054 27.496 21.7926 27.1695 23.1348Z" fill="#5D5D5F"/>
</g>
<defs>
<clipPath id="clip0_3_817">
<rect width="37" height="37" fill="white" transform="translate(0 0.390625)"/>
</clipPath>
</defs>
</svg>
