<svg width="37" height="38" viewBox="0 0 37 38" fill="none" xmlns="http://www.w3.org/2000/svg">
<g clip-path="url(#clip0_3_821)">
<path d="M18.4999 1.66028C8.996 1.66028 1.26953 9.38675 1.26953 18.8907C1.26953 28.3946 8.996 36.1211 18.4999 36.1211C28.0038 36.1211 35.7303 28.3946 35.7303 18.8907C35.7303 9.38675 28.0038 1.66028 18.4999 1.66028ZM20.2774 22.7358C19.2254 22.7358 18.2097 22.1554 17.847 21.5024L17.1578 24.223C16.7225 25.7828 15.4529 27.3426 15.3803 27.4515C15.3078 27.524 15.1627 27.524 15.1264 27.3789C15.0901 27.1613 14.7636 25.2024 15.1627 23.6064C15.344 22.8083 16.4323 18.2015 16.4323 18.2015C16.4323 18.2015 16.1058 17.5848 16.1058 16.6417C16.1058 15.1907 16.9401 14.0662 18.0284 14.0662C18.9352 14.0662 19.3705 14.7554 19.3705 15.5534C19.3705 16.4603 18.7901 17.8024 18.4999 19.072C18.246 20.124 19.0078 20.9946 20.0597 20.9946C21.946 20.9946 23.1793 18.6005 23.1793 15.7348C23.1793 13.5583 21.7284 11.926 19.0803 11.926C16.0695 11.926 14.2195 14.175 14.2195 16.6779C14.2195 17.5485 14.4735 18.1652 14.8725 18.6005C15.0538 18.8181 15.0901 18.8907 15.0176 19.1446C14.9813 19.326 14.8725 19.7613 14.7999 19.9426C14.7274 20.1966 14.546 20.2691 14.2921 20.1966C12.9136 19.6524 12.2607 18.1289 12.2607 16.424C12.2607 13.6309 14.6186 10.2573 19.3342 10.2573C23.1068 10.2573 25.6097 12.9779 25.6097 15.9162C25.6097 19.8338 23.4695 22.7358 20.2774 22.7358Z" fill="#5D5D5F"/>
</g>
<defs>
<clipPath id="clip0_3_821">
<rect width="37" height="37" fill="white" transform="translate(0 0.390625)"/>
</clipPath>
</defs>
</svg>
