<svg width="37" height="38" viewBox="0 0 37 38" fill="none" xmlns="http://www.w3.org/2000/svg">
<g clip-path="url(#clip0_3_824)">
<path d="M18.4999 1.66028C8.996 1.66028 1.26953 9.38675 1.26953 18.8907C1.26953 28.3946 8.996 36.1211 18.4999 36.1211C28.0038 36.1211 35.7303 28.3946 35.7303 18.8907C35.7303 9.38675 28.0038 1.66028 18.4999 1.66028ZM15.6705 24.8397H12.5509V13.9211H15.6705V24.8397ZM14.2195 13.2318C13.4215 13.2318 12.7686 12.5789 12.7686 11.7809C12.7686 10.9828 13.4215 10.3299 14.2195 10.3299C15.0176 10.3299 15.6705 10.9828 15.6705 11.7809C15.6705 12.5789 15.0176 13.2318 14.2195 13.2318ZM26.5891 24.8397H23.4695V18.0926C23.4695 17.2946 23.2519 16.7505 22.2725 16.7505C20.6764 16.7505 20.3499 18.0926 20.3499 18.0926V24.8397H17.2303V13.9211H20.3499V14.973C20.7852 14.6466 21.9097 13.9211 23.4695 13.9211C24.4852 13.9211 26.5891 14.5377 26.5891 18.1652V24.8397Z" fill="#5D5D5F"/>
</g>
<defs>
<clipPath id="clip0_3_824">
<rect width="37" height="37" fill="white" transform="translate(0 0.390625)"/>
</clipPath>
</defs>
</svg>
